<?xml version="1.0" encoding="UTF-8"?>
<svg xmlns="http://www.w3.org/2000/svg" xmlns:xlink="http://www.w3.org/1999/xlink" width="150pt" height="74.999997pt" viewBox="0 0 150 74.999997" version="1.2">
<g id="surface1">
<path style="fill:none;stroke-width:1;stroke-linecap:round;stroke-linejoin:miter;stroke:rgb(100%,100%,100%);stroke-opacity:1;stroke-miterlimit:4;" d="M 0.500003 0.0000278251 L 1.278529 0.0000278251 " transform="matrix(66.210859,0,0,65.953684,16.308457,37.82629)"/>
<path style=" stroke:none;fill-rule:nonzero;fill:rgb(0%,0%,0%);fill-opacity:1;" d="M 49.414062 11.914062 C 48.578125 11.914062 47.742188 11.957031 46.90625 12.039062 C 46.074219 12.121094 45.246094 12.242188 44.421875 12.40625 C 43.601562 12.570312 42.789062 12.773438 41.988281 13.015625 C 41.183594 13.257812 40.398438 13.542969 39.625 13.863281 C 38.847656 14.183594 38.09375 14.539062 37.351562 14.9375 C 36.613281 15.332031 35.898438 15.761719 35.199219 16.226562 C 34.503906 16.691406 33.832031 17.191406 33.183594 17.722656 C 32.535156 18.253906 31.914062 18.816406 31.324219 19.410156 C 30.730469 20 30.167969 20.621094 29.636719 21.269531 C 29.105469 21.917969 28.605469 22.589844 28.140625 23.285156 C 27.675781 23.980469 27.246094 24.699219 26.851562 25.4375 C 26.453125 26.179688 26.097656 26.933594 25.777344 27.707031 C 25.457031 28.484375 25.175781 29.269531 24.929688 30.074219 C 24.6875 30.875 24.484375 31.6875 24.320312 32.507812 C 24.15625 33.332031 24.035156 34.160156 23.953125 34.992188 C 23.871094 35.824219 23.828125 36.660156 23.828125 37.5 C 23.828125 38.339844 23.871094 39.175781 23.953125 40.007812 C 24.035156 40.839844 24.15625 41.667969 24.320312 42.492188 C 24.484375 43.3125 24.6875 44.125 24.929688 44.925781 C 25.175781 45.730469 25.457031 46.515625 25.777344 47.292969 C 26.097656 48.066406 26.453125 48.820312 26.851562 49.5625 C 27.246094 50.300781 27.675781 51.019531 28.140625 51.714844 C 28.605469 52.410156 29.105469 53.082031 29.636719 53.730469 C 30.167969 54.378906 30.730469 55 31.324219 55.589844 C 31.914062 56.183594 32.535156 56.746094 33.183594 57.277344 C 33.832031 57.808594 34.503906 58.308594 35.199219 58.773438 C 35.898438 59.238281 36.613281 59.667969 37.351562 60.0625 C 38.09375 60.460938 38.847656 60.816406 39.625 61.136719 C 40.398438 61.457031 41.183594 61.742188 41.988281 61.984375 C 42.789062 62.226562 43.601562 62.429688 44.421875 62.59375 C 45.246094 62.757812 46.074219 62.878906 46.90625 62.960938 C 47.742188 63.042969 48.578125 63.085938 49.414062 63.085938 C 50.253906 63.085938 51.089844 63.042969 51.921875 62.960938 C 52.757812 62.878906 53.585938 62.757812 54.40625 62.59375 C 55.226562 62.429688 56.039062 62.226562 56.839844 61.984375 C 57.644531 61.742188 58.429688 61.457031 59.207031 61.136719 C 59.980469 60.816406 60.738281 60.460938 61.476562 60.0625 C 62.214844 59.667969 62.933594 59.238281 63.628906 58.773438 C 64.324219 58.308594 64.996094 57.808594 65.644531 57.277344 C 66.292969 56.746094 66.914062 56.183594 67.507812 55.589844 C 68.097656 55 68.660156 54.378906 69.191406 53.730469 C 69.722656 53.082031 70.222656 52.410156 70.6875 51.714844 C 71.152344 51.019531 71.582031 50.300781 71.980469 49.5625 C 72.375 48.820312 72.730469 48.066406 73.050781 47.292969 C 73.375 46.515625 73.65625 45.730469 73.898438 44.925781 C 74.140625 44.125 74.34375 43.3125 74.507812 42.492188 C 74.671875 41.667969 74.792969 40.839844 74.875 40.007812 C 74.957031 39.175781 75 38.339844 75 37.5 C 75 36.660156 74.957031 35.824219 74.875 34.992188 C 74.792969 34.160156 74.671875 33.332031 74.507812 32.507812 C 74.34375 31.6875 74.140625 30.875 73.898438 30.074219 C 73.65625 29.269531 73.375 28.484375 73.050781 27.707031 C 72.730469 26.933594 72.375 26.179688 71.980469 25.4375 C 71.582031 24.699219 71.152344 23.980469 70.6875 23.285156 C 70.222656 22.589844 69.722656 21.917969 69.191406 21.269531 C 68.660156 20.621094 68.097656 20 67.507812 19.410156 C 66.914062 18.816406 66.292969 18.253906 65.644531 17.722656 C 64.996094 17.191406 64.324219 16.691406 63.628906 16.226562 C 62.933594 15.761719 62.214844 15.332031 61.476562 14.9375 C 60.738281 14.539062 59.980469 14.183594 59.207031 13.863281 C 58.429688 13.542969 57.644531 13.257812 56.839844 13.015625 C 56.039062 12.773438 55.226562 12.570312 54.40625 12.40625 C 53.585938 12.242188 52.757812 12.121094 51.921875 12.039062 C 51.089844 11.957031 50.253906 11.914062 49.414062 11.914062 Z M 49.414062 11.914062 "/>
</g>
</svg>
